<svg xmlns="http://www.w3.org/2000/svg" xmlns:xlink="http://www.w3.org/1999/xlink" viewBox="0 0 412 442"><defs><style>.cls-1{fill:none;}.cls-2{isolation:isolate;}.cls-3{clip-path:url(#clip-path);}.cls-4{fill:#805d4a;}.cls-5{fill:#7c5a48;}.cls-6{clip-path:url(#clip-path-2);}.cls-7{fill:#e1a382;}.cls-8{clip-path:url(#clip-path-3);}.cls-9{fill:#854c58;}.cls-10{fill:#804a55;}.cls-11{clip-path:url(#clip-path-4);}.cls-12{fill:#e8869a;}.cls-13{clip-path:url(#clip-path-5);}.cls-14{fill:#5f854d;}.cls-15{fill:#5c804a;}.cls-16{clip-path:url(#clip-path-6);}.cls-17{fill:#a7e887;}.cls-18{clip-path:url(#clip-path-7);}.cls-19{fill:#857749;}.cls-20{fill:#807246;}.cls-21{clip-path:url(#clip-path-8);}.cls-22{fill:#e8d080;}.cls-23{clip-path:url(#clip-path-9);}.cls-24{clip-path:url(#clip-path-10);}.cls-25{fill:#e4a584;}.cls-26{fill:#fcf7b6;}</style><clipPath id="clip-path"><path class="cls-1" d="M358.71,140.7l-4.31,7a9.19,9.19,0,0,1-7.83,4.33l4.32-7A9.16,9.16,0,0,0,358.71,140.7Z"/></clipPath><clipPath id="clip-path-2"><path class="cls-1" d="M60.81,109l4.32-7c-6.29,10.15-10,21.51-9.89,33.79A9.41,9.41,0,0,0,64.65,145l-4.32,7a9.41,9.41,0,0,1-9.41-9.24C50.77,130.47,54.52,119.1,60.81,109Z"/></clipPath><clipPath id="clip-path-3"><path class="cls-1" d="M356.66,192.05l-4.32,7a19.65,19.65,0,0,1-16.76,9.28l4.31-7A19.68,19.68,0,0,0,356.66,192.05Z"/></clipPath><clipPath id="clip-path-4"><path class="cls-1" d="M53.34,178l4.31-7a19.44,19.44,0,0,0-2.91,10.53,20.16,20.16,0,0,0,20.17,19.81l-4.32,7a20.17,20.17,0,0,1-20.17-19.81A19.44,19.44,0,0,1,53.34,178Z"/></clipPath><clipPath id="clip-path-5"><path class="cls-1" d="M356.66,248.05,352.34,255a19.63,19.63,0,0,1-16.76,9.28l4.31-6.95A19.68,19.68,0,0,0,356.66,248.05Z"/></clipPath><clipPath id="clip-path-6"><path class="cls-1" d="M53.34,234l4.31-7a19.43,19.43,0,0,0-2.91,10.52,20.16,20.16,0,0,0,20.17,19.81l-4.32,6.95a20.16,20.16,0,0,1-20.17-19.8A19.32,19.32,0,0,1,53.34,234Z"/></clipPath><clipPath id="clip-path-7"><path class="cls-1" d="M356.66,304l-4.32,7a19.63,19.63,0,0,1-16.76,9.28l4.31-7A19.66,19.66,0,0,0,356.66,304Z"/></clipPath><clipPath id="clip-path-8"><path class="cls-1" d="M53.34,290l4.31-7a19.4,19.4,0,0,0-2.91,10.52,20.15,20.15,0,0,0,20.17,19.8l-4.32,7a20.17,20.17,0,0,1-20.17-19.8A19.3,19.3,0,0,1,53.34,290Z"/></clipPath><clipPath id="clip-path-9"><path class="cls-1" d="M346.8,368.18l-6.89,7a44.21,44.21,0,0,1-31.57,13.09l6.9-7A44.19,44.19,0,0,0,346.8,368.18Z"/></clipPath><clipPath id="clip-path-10"><path class="cls-1" d="M51.41,338.42l6.89-7a6.25,6.25,0,0,0-1.75,4.59,46.31,46.31,0,0,0,46.11,45.22l-6.89,7A46.31,46.31,0,0,1,49.66,343,6.25,6.25,0,0,1,51.41,338.42Z"/></clipPath></defs><title>burger</title><g id="Layer_1" data-name="Layer 1"><g class="cls-2"><g class="cls-2"><g class="cls-3"><g class="cls-2"><path class="cls-4" d="M358.71,140.7l-4.31,7a9.19,9.19,0,0,1-7.83,4.33l4.32-7a9.16,9.16,0,0,0,7.82-4.33"/></g></g></g><polygon class="cls-5" points="350.89 145.03 346.57 151.99 60.33 151.99 64.65 145.03 350.89 145.03"/><g class="cls-2"><g class="cls-6"><g class="cls-2"><path class="cls-4" d="M64.65,145l-4.32,7a9.41,9.41,0,0,1-9.41-9.24c-.15-12.28,3.6-23.65,9.89-33.79l4.32-7c-6.29,10.15-10,21.51-9.89,33.79A9.41,9.41,0,0,0,64.65,145"/></g></g></g><path class="cls-7" d="M207.89,44.89a262,262,0,0,1,74.29,10.39c35,10.4,77.4,40.47,77.89,80.51a9.13,9.13,0,0,1-9.18,9.24H64.65a9.41,9.41,0,0,1-9.41-9.24c-.5-40.84,42.12-71.5,77.88-81.1A290.59,290.59,0,0,1,207.89,44.89Z"/></g><g class="cls-2"><g class="cls-2"><g class="cls-8"><g class="cls-2"><path class="cls-9" d="M356.66,192.05l-4.32,7a19.65,19.65,0,0,1-16.76,9.28l4.31-7a19.68,19.68,0,0,0,16.77-9.28"/></g></g></g><polygon class="cls-10" points="339.89 201.33 335.58 208.29 70.59 208.29 74.91 201.33 339.89 201.33"/><g class="cls-2"><g class="cls-11"><g class="cls-2"><path class="cls-9" d="M74.91,201.33l-4.32,7a20.17,20.17,0,0,1-20.17-19.81A19.44,19.44,0,0,1,53.34,178l4.31-7a19.44,19.44,0,0,0-2.91,10.53,20.16,20.16,0,0,0,20.17,19.81"/></g></g></g><path class="cls-12" d="M339.41,161.71a20.16,20.16,0,0,1,20.16,19.81,19.57,19.57,0,0,1-19.68,19.81h-265a20.16,20.16,0,0,1-20.17-19.81,19.58,19.58,0,0,1,19.69-19.81Z"/></g><g class="cls-2"><g class="cls-2"><g class="cls-13"><g class="cls-2"><path class="cls-14" d="M356.66,248.05,352.34,255a19.63,19.63,0,0,1-16.76,9.28l4.31-6.95a19.68,19.68,0,0,0,16.77-9.28"/></g></g></g><polygon class="cls-15" points="339.89 257.32 335.58 264.28 70.59 264.28 74.91 257.32 339.89 257.32"/><g class="cls-2"><g class="cls-16"><g class="cls-2"><path class="cls-14" d="M74.91,257.33l-4.32,6.95a20.16,20.16,0,0,1-20.17-19.8A19.32,19.32,0,0,1,53.34,234l4.31-7a19.43,19.43,0,0,0-2.91,10.52,20.16,20.16,0,0,0,20.17,19.81"/></g></g></g><path class="cls-17" d="M339.41,217.72a20.16,20.16,0,0,1,20.16,19.8,19.57,19.57,0,0,1-19.68,19.81h-265a20.16,20.16,0,0,1-20.17-19.81,19.57,19.57,0,0,1,19.69-19.8Z"/></g><g class="cls-2"><g class="cls-2"><g class="cls-18"><g class="cls-2"><path class="cls-19" d="M356.66,304l-4.32,7a19.63,19.63,0,0,1-16.76,9.28l4.31-7A19.66,19.66,0,0,0,356.66,304"/></g></g></g><polygon class="cls-20" points="339.89 313.32 335.58 320.28 70.59 320.28 74.91 313.32 339.89 313.32"/><g class="cls-2"><g class="cls-21"><g class="cls-2"><path class="cls-19" d="M74.91,313.32l-4.32,7a20.17,20.17,0,0,1-20.17-19.8A19.3,19.3,0,0,1,53.34,290l4.31-7a19.4,19.4,0,0,0-2.91,10.52,20.15,20.15,0,0,0,20.17,19.8"/></g></g></g><path class="cls-22" d="M339.41,273.72a20.15,20.15,0,0,1,20.16,19.8,19.57,19.57,0,0,1-19.68,19.8h-265a20.15,20.15,0,0,1-20.17-19.8,19.57,19.57,0,0,1,19.69-19.8Z"/></g><g class="cls-2"><g class="cls-2"><g class="cls-23"><g class="cls-2"><path class="cls-4" d="M346.8,368.18l-6.89,7a44.21,44.21,0,0,1-31.57,13.09l6.9-7a44.19,44.19,0,0,0,31.56-13.09"/></g></g></g><polygon class="cls-5" points="315.24 381.27 308.35 388.23 95.77 388.23 102.66 381.27 315.24 381.27"/><g class="cls-2"><g class="cls-24"><g class="cls-2"><path class="cls-4" d="M102.66,381.27l-6.89,7A46.31,46.31,0,0,1,49.66,343a6.25,6.25,0,0,1,1.75-4.59l6.89-7a6.25,6.25,0,0,0-1.75,4.59,46.31,46.31,0,0,0,46.11,45.22"/></g></g></g><path class="cls-25" d="M353.18,329.77a6.43,6.43,0,0,1,6.39,6.28,44.16,44.16,0,0,1-44.33,45.22H102.66a46.31,46.31,0,0,1-46.11-45.22,5.89,5.89,0,0,1,5.82-6.28Z"/></g></g><g id="seeds"><path class="cls-26" d="M135.3,96.3a26.67,26.67,0,0,1-10.1-4.86c-1.33-1-2.81-2.39-3.09-4.18a4,4,0,0,1,2.83-4.55c2.63-.63,5.06,1.47,6.43,3.47A24.64,24.64,0,0,1,135.3,96.3Z"/><path class="cls-26" d="M293,74a26.67,26.67,0,0,0,6.06,9.43c1.21,1.19,2.71,2.5,4.53,2.56a4,4,0,0,0,4.17-3.37c.3-2.68-2.08-4.84-4.24-5.95A24.59,24.59,0,0,0,293,74Z"/><path class="cls-26" d="M155.75,74.91a25.36,25.36,0,0,1-11.2-.56c-1.64-.47-3.53-1.16-4.5-2.78a4.37,4.37,0,0,1,.79-5.57c2.16-1.68,5.23-.65,7.28.73A25.69,25.69,0,0,1,155.75,74.91Z"/><path class="cls-26" d="M181.82,68.1a26.55,26.55,0,0,1-3.38,10.68c-.86,1.47-2,3.12-3.71,3.65a4,4,0,0,1-4.9-2.16c-1-2.51.74-5.22,2.53-6.85A24.52,24.52,0,0,1,181.82,68.1Z"/><path class="cls-26" d="M108.54,77.84a26.61,26.61,0,0,1-3,10.81c-.8,1.5-1.84,3.2-3.56,3.8a4,4,0,0,1-5-2c-1.1-2.47.53-5.24,2.25-6.95A24.7,24.7,0,0,1,108.54,77.84Z"/><path class="cls-26" d="M237.21,80.3a26.59,26.59,0,0,0,10.1-4.86c1.33-1,2.82-2.39,3.09-4.18a4,4,0,0,0-2.83-4.55c-2.62-.63-5.06,1.47-6.43,3.47A24.78,24.78,0,0,0,237.21,80.3Z"/><path class="cls-26" d="M235.06,53.78a25.47,25.47,0,0,0-10.17,4.72c-1.35,1.06-2.84,2.4-3.13,4.27a4.37,4.37,0,0,0,2.82,4.86c2.63.75,5.09-1.36,6.47-3.41A25.53,25.53,0,0,0,235.06,53.78Z"/><path class="cls-26" d="M210.28,64.07a26.37,26.37,0,0,0-8.78-6.95c-1.53-.74-3.38-1.49-5.12-.95a4,4,0,0,0-2.85,4.54c.58,2.63,3.54,3.9,5.94,4.25A24.7,24.7,0,0,0,210.28,64.07Z"/><path class="cls-26" d="M264,65.84a26.63,26.63,0,0,0,2.94,10.81c.8,1.5,1.84,3.2,3.56,3.8a4,4,0,0,0,5-2c1.09-2.47-.54-5.24-2.26-6.95A24.64,24.64,0,0,0,264,65.84Z"/></g><g id="Layer_3" data-name="Layer 3"><path d="M186.67,109.1v4.52h5.21V109.1h1.41v10.79h-1.41v-5.06h-5.21v5.06h-1.4V109.1Z"/><path d="M202.64,116a3.79,3.79,0,0,1-3.85,4.12,3.68,3.68,0,0,1-3.72-4,3.77,3.77,0,0,1,3.84-4.1A3.66,3.66,0,0,1,202.64,116Zm-6.14.09c0,1.7,1,3,2.35,3s2.36-1.26,2.36-3c0-1.31-.66-3-2.34-3S196.5,114.57,196.5,116Z"/><path d="M204.41,114.24c0-.8,0-1.45-.06-2.09h1.22l.08,1.25h0a2.66,2.66,0,0,1,2.44-1.42,2.27,2.27,0,0,1,2.18,1.55h0a3.16,3.16,0,0,1,.88-1,2.64,2.64,0,0,1,1.7-.54c1,0,2.56.66,2.56,3.36v4.55H214.1v-4.37c0-1.5-.55-2.39-1.68-2.39a1.84,1.84,0,0,0-1.67,1.27,2.18,2.18,0,0,0-.12.7v4.79h-1.37v-4.64c0-1.23-.55-2.12-1.61-2.12a2,2,0,0,0-1.76,1.4,2.28,2.28,0,0,0-.1.7v4.66h-1.38Z"/><path d="M218.55,116.28A2.47,2.47,0,0,0,221.2,119a5.29,5.29,0,0,0,2.14-.39l.25,1a6.31,6.31,0,0,1-2.58.49,3.61,3.61,0,0,1-3.81-3.91c0-2.34,1.38-4.17,3.64-4.17,2.53,0,3.19,2.21,3.19,3.64a3.61,3.61,0,0,1-.05.66Zm4.12-1a2,2,0,0,0-1.94-2.27,2.3,2.3,0,0,0-2.16,2.27Z"/><path d="M173.49,188a4.75,4.75,0,0,0,2.31.65c1.8,0,2.36-1.15,2.35-2,0-1.46-1.33-2.08-2.69-2.08h-.78v-1.06h.78c1,0,2.32-.53,2.32-1.75,0-.84-.53-1.57-1.83-1.57a3.79,3.79,0,0,0-2.07.68l-.38-1a4.88,4.88,0,0,1,2.72-.81c2.06,0,3,1.21,3,2.49a2.6,2.6,0,0,1-1.92,2.45v0a2.68,2.68,0,0,1,2.31,2.66c0,1.67-1.3,3.13-3.79,3.13a5.11,5.11,0,0,1-2.7-.72Z"/><path d="M181.86,178.92a18.45,18.45,0,0,1,3-.23,6.17,6.17,0,0,1,4.37,1.35,4.93,4.93,0,0,1,1.53,3.86,5.75,5.75,0,0,1-1.55,4.2,6.74,6.74,0,0,1-4.78,1.55,20.51,20.51,0,0,1-2.53-.12Zm1.4,9.54a9.43,9.43,0,0,0,1.4.07c3,0,4.59-1.66,4.59-4.57,0-2.55-1.42-4.16-4.36-4.16a8.75,8.75,0,0,0-1.63.14Z"/><path d="M196.42,181.82l1,3.93c.22.86.42,1.67.57,2.47h0c.18-.78.43-1.62.7-2.46l1.26-3.94h1.18l1.21,3.87c.28.92.5,1.74.68,2.53h0c.14-.79.35-1.6.6-2.52l1.11-3.88h1.38l-2.5,7.74h-1.27l-1.18-3.69a24.1,24.1,0,0,1-.69-2.56h0a20.43,20.43,0,0,1-.71,2.57l-1.24,3.68h-1.29L195,181.82Z"/><path d="M214.49,185.62a3.8,3.8,0,0,1-3.85,4.12,3.68,3.68,0,0,1-3.72-4,3.78,3.78,0,0,1,3.84-4.11A3.67,3.67,0,0,1,214.49,185.62Zm-6.14.09c0,1.69,1,3,2.35,3s2.36-1.26,2.36-3c0-1.31-.66-3-2.34-3S208.35,184.24,208.35,185.71Z"/><path d="M216.26,184.23c0-.91,0-1.69-.06-2.41h1.23l.06,1.52h0a2.35,2.35,0,0,1,2.15-1.7,1.56,1.56,0,0,1,.39,0V183a2.17,2.17,0,0,0-.47,0,2,2,0,0,0-1.89,1.8,3.34,3.34,0,0,0-.06.65v4.14h-1.4Z"/><path d="M223,185.37h0c.19-.27.46-.62.68-.88l2.28-2.67h1.69l-3,3.18,3.41,4.56h-1.72l-2.66-3.72-.72.81v2.91h-1.4V178.2H223Z"/><path d="M228.86,188.13a3.93,3.93,0,0,0,1.87.55c1,0,1.5-.51,1.5-1.15s-.41-1-1.44-1.42c-1.39-.51-2.06-1.27-2-2.2a2.39,2.39,0,0,1,2.67-2.27,3.78,3.78,0,0,1,1.9.48l-.35,1a3.11,3.11,0,0,0-1.59-.45c-.83,0-1.28.48-1.28,1.06s.46.93,1.47,1.32c1.33.5,2,1.17,2,2.33,0,1.37-1.06,2.33-2.89,2.33a4.44,4.44,0,0,1-2.18-.54Z"/><path d="M174.15,243.56v-.86l1.1-1.07c2.66-2.53,3.87-3.88,3.88-5.45a1.86,1.86,0,0,0-2.06-2,3.62,3.62,0,0,0-2.21.88l-.45-1a4.57,4.57,0,0,1,3-1.06,2.92,2.92,0,0,1,3.17,3c0,1.93-1.39,3.48-3.58,5.58l-.82.78v0h4.66v1.17Z"/><path d="M182.86,232.92a18.45,18.45,0,0,1,3-.23,6.17,6.17,0,0,1,4.37,1.35,4.93,4.93,0,0,1,1.53,3.86,5.75,5.75,0,0,1-1.55,4.2,6.74,6.74,0,0,1-4.78,1.55,20.51,20.51,0,0,1-2.53-.12Zm1.4,9.54a9.43,9.43,0,0,0,1.4.07c3,0,4.59-1.66,4.59-4.57,0-2.55-1.42-4.16-4.36-4.16a8.75,8.75,0,0,0-1.63.14Z"/><path d="M197.42,235.82l1,3.93c.22.86.42,1.67.57,2.47h0c.18-.78.43-1.62.7-2.46l1.26-3.94h1.18l1.21,3.87c.28.92.5,1.74.68,2.53h0c.14-.79.35-1.6.6-2.52l1.11-3.88h1.38l-2.5,7.74h-1.27l-1.18-3.69a24.1,24.1,0,0,1-.69-2.56h0a20.43,20.43,0,0,1-.71,2.57l-1.24,3.68h-1.29L196,235.82Z"/><path d="M215.49,239.62a3.8,3.8,0,0,1-3.85,4.12,3.68,3.68,0,0,1-3.72-4,3.78,3.78,0,0,1,3.84-4.11A3.67,3.67,0,0,1,215.49,239.62Zm-6.14.09c0,1.69,1,3,2.35,3s2.36-1.26,2.36-3c0-1.31-.66-3-2.34-3S209.35,238.24,209.35,239.71Z"/><path d="M217.26,238.23c0-.91,0-1.69-.06-2.41h1.23l.06,1.52h0a2.35,2.35,0,0,1,2.15-1.7,1.56,1.56,0,0,1,.39,0V237a2.17,2.17,0,0,0-.47,0,2,2,0,0,0-1.89,1.8,3.34,3.34,0,0,0-.06.65v4.14h-1.4Z"/><path d="M224,239.37h0c.19-.27.46-.62.68-.88l2.28-2.67h1.69l-3,3.18,3.41,4.56h-1.72l-2.66-3.72-.72.81v2.91h-1.4V232.2H224Z"/><path d="M229.86,242.13a3.93,3.93,0,0,0,1.87.55c1,0,1.5-.51,1.5-1.15s-.41-1-1.44-1.42c-1.39-.51-2.06-1.27-2-2.2a2.39,2.39,0,0,1,2.67-2.27,3.78,3.78,0,0,1,1.9.48l-.35,1a3.11,3.11,0,0,0-1.59-.45c-.83,0-1.28.48-1.28,1.06s.46.93,1.47,1.32c1.33.5,2,1.17,2,2.33,0,1.37-1.06,2.33-2.89,2.33a4.44,4.44,0,0,1-2.18-.54Z"/><path d="M172.26,295.17l-1.12,3.39H169.7l3.67-10.79H175l3.69,10.79h-1.49l-1.16-3.39Zm3.54-1.09-1.07-3.1c-.23-.71-.39-1.35-.55-2h0c-.15.63-.32,1.29-.53,1.95l-1.07,3.12Z"/><path d="M180.21,292.91c0-.81,0-1.45-.06-2.09h1.24l.08,1.27h0a2.87,2.87,0,0,1,2.56-1.45c1.06,0,2.73.64,2.73,3.3v4.62h-1.4V294.1c0-1.25-.47-2.3-1.79-2.3a2,2,0,0,0-1.9,1.44,2.13,2.13,0,0,0-.09.65v4.67h-1.41Z"/><path d="M190.67,288.63a.86.86,0,0,1-.9.88.84.84,0,0,1-.85-.88.86.86,0,0,1,.88-.88A.85.85,0,0,1,190.67,288.63Zm-1.57,9.93v-7.74h1.4v7.74Z"/><path d="M192.84,292.91c0-.81,0-1.45-.07-2.09H194l.07,1.25h0a2.67,2.67,0,0,1,2.44-1.43,2.29,2.29,0,0,1,2.19,1.56h0a3,3,0,0,1,.87-1,2.59,2.59,0,0,1,1.7-.55c1,0,2.56.67,2.56,3.36v4.56h-1.37v-4.38c0-1.5-.56-2.39-1.68-2.39a1.84,1.84,0,0,0-1.68,1.27,2.3,2.3,0,0,0-.12.71v4.79h-1.37v-4.65c0-1.23-.54-2.12-1.61-2.12a2,2,0,0,0-1.75,1.41,2.22,2.22,0,0,0-.11.69v4.67h-1.37Z"/><path d="M210.48,298.56l-.13-1h0a2.86,2.86,0,0,1-2.37,1.16,2.21,2.21,0,0,1-2.36-2.22c0-1.88,1.66-2.91,4.65-2.89v-.16a1.6,1.6,0,0,0-1.76-1.79,3.79,3.79,0,0,0-2,.58l-.32-.94a4.91,4.91,0,0,1,2.56-.68c2.36,0,2.94,1.62,2.94,3.17v2.9a11.65,11.65,0,0,0,.12,1.85Zm-.22-3.95c-1.52,0-3.27.24-3.27,1.74a1.23,1.23,0,0,0,1.31,1.34,1.94,1.94,0,0,0,1.89-1.29,1.45,1.45,0,0,0,.07-.45Z"/><path d="M215.53,288.59v2.23h2v1.07h-2v4.17c0,1,.28,1.51,1.06,1.51a2.69,2.69,0,0,0,.82-.11l.06,1.07a3.48,3.48,0,0,1-1.25.2,2,2,0,0,1-1.52-.6,2.94,2.94,0,0,1-.55-2v-4.22H213v-1.07h1.2V289Z"/><path d="M220.71,288.63a.87.87,0,1,1-1.74,0,.86.86,0,0,1,.87-.88A.84.84,0,0,1,220.71,288.63Zm-1.57,9.93v-7.74h1.4v7.74Z"/><path d="M229.89,294.62a3.8,3.8,0,0,1-3.85,4.12,3.68,3.68,0,0,1-3.72-4,3.78,3.78,0,0,1,3.84-4.11A3.67,3.67,0,0,1,229.89,294.62Zm-6.14.09c0,1.69,1,3,2.35,3s2.36-1.26,2.36-3c0-1.31-.67-3-2.34-3S223.75,293.24,223.75,294.71Z"/><path d="M231.66,292.91c0-.81,0-1.45-.06-2.09h1.24l.08,1.27h0a2.87,2.87,0,0,1,2.56-1.45c1.06,0,2.73.64,2.73,3.3v4.62h-1.4V294.1c0-1.25-.47-2.3-1.79-2.3a2,2,0,0,0-1.9,1.44,2.11,2.11,0,0,0-.1.65v4.67h-1.4Z"/><path d="M182.89,359.21a6.76,6.76,0,0,1-2.85.52c-3,0-5.32-1.92-5.32-5.47a5.36,5.36,0,0,1,5.64-5.66,5.87,5.87,0,0,1,2.56.48l-.35,1.13a5.1,5.1,0,0,0-2.17-.44c-2.53,0-4.21,1.62-4.21,4.45,0,2.64,1.52,4.32,4.14,4.32a5.61,5.61,0,0,0,2.28-.44Z"/><path d="M191.42,355.62a3.8,3.8,0,0,1-3.85,4.12,3.68,3.68,0,0,1-3.72-4,3.78,3.78,0,0,1,3.84-4.11A3.67,3.67,0,0,1,191.42,355.62Zm-6.14.09c0,1.69,1,3,2.35,3s2.35-1.26,2.35-3c0-1.31-.66-3-2.33-3S185.28,354.24,185.28,355.71Z"/><path d="M193.19,353.91c0-.81,0-1.45-.06-2.09h1.24l.08,1.27h0a2.87,2.87,0,0,1,2.56-1.45c1.06,0,2.73.64,2.73,3.3v4.62h-1.4V355.1c0-1.25-.48-2.3-1.79-2.3a2,2,0,0,0-1.9,1.44,2.11,2.11,0,0,0-.1.65v4.67h-1.4Z"/><path d="M203.7,349.59v2.23h2v1.07h-2v4.17c0,1,.28,1.51,1.06,1.51a2.69,2.69,0,0,0,.82-.11l.06,1.07a3.5,3.5,0,0,1-1.26.2,2,2,0,0,1-1.51-.6,2.94,2.94,0,0,1-.55-2v-4.22h-1.2v-1.07h1.2V350Z"/><path d="M211.6,359.56l-.12-1h0a2.88,2.88,0,0,1-2.37,1.16,2.21,2.21,0,0,1-2.37-2.22c0-1.88,1.66-2.91,4.65-2.89v-.16a1.59,1.59,0,0,0-1.76-1.79,3.76,3.76,0,0,0-2,.58l-.32-.94a4.87,4.87,0,0,1,2.55-.68c2.37,0,2.94,1.62,2.94,3.17v2.9a11.65,11.65,0,0,0,.12,1.85Zm-.22-3.95c-1.52,0-3.27.24-3.27,1.74a1.24,1.24,0,0,0,1.32,1.34,2,2,0,0,0,1.89-1.29,1.8,1.8,0,0,0,.06-.45Z"/><path d="M220.55,359.28a5.36,5.36,0,0,1-2.22.45,3.69,3.69,0,0,1-3.87-4,3.94,3.94,0,0,1,4.16-4.12,4.59,4.59,0,0,1,2,.41l-.31,1.08a3.52,3.52,0,0,0-1.65-.37,2.92,2.92,0,0,0,0,5.83,4,4,0,0,0,1.73-.38Z"/><path d="M224.09,349.59v2.23h2v1.07h-2v4.17c0,1,.27,1.51,1.06,1.51a2.69,2.69,0,0,0,.82-.11l.06,1.07a3.5,3.5,0,0,1-1.26.2,2,2,0,0,1-1.52-.6,3,3,0,0,1-.54-2v-4.22h-1.2v-1.07h1.2V350Z"/></g></svg>